# xmcd
#
# Track frame offsets:
#        182
#        16457
#        31242
#        43025
#        51047
#        64805
#        85045
#        94567
#        105437
#        132227
#        146480
#        157800
#
# Disc length: 2266 seconds
#
# Revision: 2
# Processed by: cddbd v1.5.1PL2 Copyright (c) Steve Scherf et al.
# Submitted via: ExactAudioCopy v0.95a3
#
DISCID=8d08d80c
DTITLE=John Mayall&The Blues Breakers with Eric Clapton - John Mayall&
DTITLE=The Blues Breakers with Eric Clapton
DYEAR=1966
DGENRE=Blues
TTITLE0=All Your Love
TTITLE1=Hideaway
TTITLE2=Little Girl
TTITLE3=Another Man
TTITLE4=Double Crossin' Time
TTITLE5=What'd I Say
TTITLE6=Key To Love
TTITLE7=Parchman Farm
TTITLE8=Have You Heard
TTITLE9=Ramblin' On My Mind
TTITLE10=Steppin' Out
TTITLE11=It Ain't Right
EXTD=(p) 1966, (c) 1982\nThe Decca Record Co. Ltd, London England.\n Y
EXTD=EAR: 1966
EXTT0=
EXTT1=
EXTT2=
EXTT3=
EXTT4=
EXTT5=
EXTT6=
EXTT7=
EXTT8=
EXTT9=
EXTT10=
EXTT11=
PLAYORDER=
